<?xml version="1.0" encoding="UTF-8"?>
<!-- Creator: CorelDRAW 2020 (64-Bit) -->
<svg xmlns="http://www.w3.org/2000/svg" xmlns:xlink="http://www.w3.org/1999/xlink" xmlns:xodm="http://www.corel.com/coreldraw/odm/2003" xml:space="preserve" width="9.8056in" height="1.72909in" version="1.1" style="shape-rendering:geometricPrecision; text-rendering:geometricPrecision; image-rendering:optimizeQuality; fill-rule:evenodd; clip-rule:evenodd" viewBox="0 0 9805.6 1729.09">
 <defs>
  <style type="text/css">
   <![CDATA[
    .fil1 {fill:#08028d}
    .fil2 {fill:#08028d;fill-rule:nonzero}
    .fil0 {fill:#FF6138;fill-rule:nonzero}
   ]]>
  </style>
 </defs>
 <g id="Layer_x0020_1">
  <metadata id="CorelCorpID_0Corel-Layer"></metadata>
  <g id="_2550882924016">
   <g id="_882013856">
    <path class="fil0" d="M0 405.95l724.3 3.18 0.63 1197.64c140.42,-116.27 314.5,-257.95 449.83,-378.67l8.9 -817.07 374.86 -5.72c99.12,-81.32 443.48,-347.54 474.61,-400.91 -500.66,-10.17 -1022.92,0.63 -1528.03,-0.64l-505.11 402.18 0 0z"></path>
    <path class="fil1" d="M1684.96 407.22c-0.63,146.13 18.43,644.88 -20.33,744.63 -34.94,90.85 -118.18,135.97 -224.91,155.66 -59.09,10.8 -116.27,15.89 -179.81,17.16l-520.35 381.21 -6.35 19.06c507.65,5.08 1033.72,41.93 1300.57,-276.38 146.77,-174.72 135.33,-385.02 135.33,-651.24 0,-262.4 2.54,-525.44 0,-787.84l-484.14 397.73 0 0z"></path>
    <path class="fil2" d="M3400.45 828.43l-308.19 0 0 881.9 -243.93 0 0 -881.9 -306.39 0 0 -197.92 858.51 0 0 197.92zm792.96 881.9l-647.74 0 0 -1079.82 622.81 0 0 197.92 -379.39 0 0 240.33 353.17 0 0 197.15 -353.17 0 0 247.02 404.32 0 0 197.41zm947.19 -38.3c-78.65,38.04 -181.73,57.06 -308.7,57.06 -165.53,0 -295.85,-48.58 -390.7,-146 -95.1,-97.42 -142.4,-227.22 -142.4,-389.41 0,-172.73 53.2,-312.82 159.87,-420.26 106.67,-107.44 245.22,-161.17 415.38,-161.17 105.38,0 194.32,13.37 266.55,40.1l0 234.16c-72.23,-43.18 -154.48,-64.77 -247.02,-64.77 -101.27,0 -183.27,31.87 -245.47,95.61 -62.2,63.75 -93.31,150.11 -93.31,259.1 0,104.36 29.31,187.64 88.17,249.58 58.6,61.95 137.77,93.05 237.24,93.05 94.85,0 181.73,-23.13 260.38,-69.4l0 222.34zm1122.75 38.3l-243.93 0 0 -439.8 -447.25 0 0 439.8 -243.42 0 0 -1079.82 243.42 0 0 430.8 447.25 0 0 -430.8 243.93 0 0 1079.82zm697.35 -428.48c0,144.71 -33.42,255.24 -100.5,332.09 -66.83,76.85 -163.99,115.15 -290.97,115.15 -56.8,0 -109.24,-9.77 -157.31,-29.3l0 -228.25c41.64,31.62 88.16,47.56 140.09,47.56 110.78,0 166.3,-82.51 166.3,-247.02l0 -641.57 242.39 0 0 651.34zm1116.83 -39.07c0,324.13 -151.14,486.32 -453.16,486.32 -293.28,0 -439.8,-158.33 -439.8,-475.01l0 -623.58 243.93 0 0 626.41c0,174.79 68.37,262.18 204.86,262.18 133.92,0 201,-84.31 201,-253.19l0 -635.4 243.16 0 0 612.27zm878.05 467.56l-643.11 0 0 -1079.82 243.42 0 0 882.42 399.7 0 0 197.41zm850.02 -1079.82l-351.63 695.8 0 384.02 -243.16 0 0 -379.65 -342.63 -700.17 277.86 0 174.01 402.78c3.09,7.46 11.31,37.02 24.68,88.17l3.09 0c6.68,-36.24 14.39,-64.52 23.39,-85.08l177.1 -405.87 257.29 0z"></path>
   </g>
  </g>
 </g>
</svg>
